<?xml version="1.0" encoding="utf-8" ?>
<svg xmlns="http://www.w3.org/2000/svg" xmlns:xlink="http://www.w3.org/1999/xlink" width="16" height="16">
	<path fill="#2F3059" transform="translate(1.44531 1.44287)" d="M4.8833332 0.87800002C5.1673331 -0.29266667 6.8326669 -0.29266667 7.1166668 0.87800002C7.2030954 1.2347062 7.454689 1.5286828 7.7937679 1.6691638C8.1328459 1.8096449 8.5186272 1.7797341 8.8319998 1.5886667C9.8606663 0.96200001 11.038667 2.1393332 10.412 3.1686666C10.221209 3.4819026 10.19137 3.8673873 10.331685 4.2062526C10.472001 4.5451183 10.765619 4.7966676 11.122 4.8833332C12.292666 5.1673331 12.292666 6.8326669 11.122 7.1166668C10.765294 7.2030954 10.471317 7.454689 10.330836 7.7937679C10.190355 8.1328459 10.220265 8.5186272 10.411333 8.8319998C11.038 9.8606663 9.8606663 11.038667 8.8313332 10.412C8.5180969 10.221209 8.1326122 10.19137 7.7937474 10.331685C7.4548817 10.472001 7.2033324 10.765619 7.1166668 11.122C6.8326669 12.292666 5.1673331 12.292666 4.8833332 11.122C4.7969046 10.765294 4.545311 10.471317 4.2062321 10.330836C3.8671536 10.190355 3.4813726 10.220265 3.168 10.411333C2.1393332 11.038 0.96133333 9.8606663 1.5880001 8.8313332C1.7787917 8.5180969 1.8086302 8.1326122 1.6683147 7.7937474C1.5279992 7.4548817 1.2343808 7.2033324 0.87800002 7.1166668C-0.29266667 6.8326669 -0.29266667 5.1673331 0.87800002 4.8833332C1.2347062 4.7969046 1.5286828 4.545311 1.6691638 4.2062321C1.8096449 3.8671536 1.7797341 3.4813726 1.5886667 3.168C0.96200001 2.1393332 2.1393332 0.96133333 3.1686666 1.5880001C3.8353333 1.9933333 4.6993332 1.6346667 4.8833332 0.87800002Z" fill-rule="evenodd"/>
	<path fill="none" stroke="#2F3059" stroke-width="1.8333334" stroke-linecap="round" stroke-linejoin="round" transform="translate(1.44531 1.44287)" d="M4.8833332 0.87800002C5.1673331 -0.29266667 6.8326669 -0.29266667 7.1166668 0.87800002C7.2030954 1.2347062 7.454689 1.5286828 7.7937679 1.6691638C8.1328459 1.8096449 8.5186272 1.7797341 8.8319998 1.5886667C9.8606663 0.96200001 11.038667 2.1393332 10.412 3.1686666C10.221209 3.4819026 10.19137 3.8673873 10.331685 4.2062526C10.472001 4.5451183 10.765619 4.7966676 11.122 4.8833332C12.292666 5.1673331 12.292666 6.8326669 11.122 7.1166668C10.765294 7.2030954 10.471317 7.454689 10.330836 7.7937679C10.190355 8.1328459 10.220265 8.5186272 10.411333 8.8319998C11.038 9.8606663 9.8606663 11.038667 8.8313332 10.412C8.5180969 10.221209 8.1326122 10.19137 7.7937474 10.331685C7.4548817 10.472001 7.2033324 10.765619 7.1166668 11.122C6.8326669 12.292666 5.1673331 12.292666 4.8833332 11.122C4.7969046 10.765294 4.545311 10.471317 4.2062321 10.330836C3.8671536 10.190355 3.4813726 10.220265 3.168 10.411333C2.1393332 11.038 0.96133333 9.8606663 1.5880001 8.8313332C1.7787917 8.5180969 1.8086302 8.1326122 1.6683147 7.7937474C1.5279992 7.4548817 1.2343808 7.2033324 0.87800002 7.1166668C-0.29266667 6.8326669 -0.29266667 5.1673331 0.87800002 4.8833332C1.2347062 4.7969046 1.5286828 4.545311 1.6691638 4.2062321C1.8096449 3.8671536 1.7797341 3.4813726 1.5886667 3.168C0.96200001 2.1393332 2.1393332 0.96133333 3.1686666 1.5880001C3.8353333 1.9933333 4.6993332 1.6346667 4.8833332 0.87800002Z" fill-rule="evenodd"/>
</svg>
