<?xml version="1.0" encoding="utf-8" ?>
<svg xmlns="http://www.w3.org/2000/svg" xmlns:xlink="http://www.w3.org/1999/xlink" width="16" height="16">
	<path fill="none" stroke="#2F3059" stroke-width="1" stroke-linecap="round" stroke-linejoin="round" transform="translate(2.66667 2.66667)" d="M8.666667 2.6666667L8.666667 0.66666669C8.666667 0.29847685 8.3681898 0 8 0L1.3333334 0C0.59695369 0 0 0.59695369 0 1.3333334C0 2.0697131 0.59695369 2.6666667 1.3333334 2.6666667L9.333333 2.6666667C9.7015228 2.6666667 10 2.9651434 10 3.3333333L10 5.3333335M10 8L10 10C10 10.36819 9.7015228 10.666667 9.333333 10.666667L1.3333334 10.666667C0.59695369 10.666667 0 10.069713 0 9.333333L0 1.3333334" fill-rule="evenodd"/>
	<path fill="none" stroke="#2F3059" stroke-width="1" stroke-linecap="round" stroke-linejoin="round" transform="translate(9.33333 8)" d="M4 0L4 2.6666667L1.3333334 2.6666667C0.59695369 2.6666667 0 2.0697131 0 1.3333334C0 0.59695369 0.59695369 0 1.3333334 0L4 0" fill-rule="evenodd"/>
</svg>
