<?xml version="1.0" encoding="utf-8" ?>
<svg xmlns="http://www.w3.org/2000/svg" xmlns:xlink="http://www.w3.org/1999/xlink" width="14" height="13">
	<path fill="none" stroke="#3E40DB" stroke-width="1" stroke-linecap="round" stroke-linejoin="round" transform="translate(0.5 0.136475)" d="M0 0.36363637L4.3636365 0.36363637" fill-rule="evenodd"/>
	<path fill="none" stroke="#3E40DB" stroke-width="1" stroke-linecap="round" stroke-linejoin="round" transform="translate(7.77273 0.136475)" d="M0 0.36363637L4.3636365 0.36363637" fill-rule="evenodd"/>
	<path fill="#3E40DB" transform="translate(0.5 3.4092)" d="M0 1.4545455C0 0.65122217 0.65122217 0 1.4545455 0L2.909091 0C3.7124143 0 4.3636365 0.65122217 4.3636365 1.4545455L4.3636365 7.2727275C4.3636365 8.0760508 3.7124143 8.727273 2.909091 8.727273L1.4545455 8.727273C0.65122217 8.727273 0 8.0760508 0 7.2727275L0 1.4545455Z" fill-rule="evenodd"/>
	<path fill="none" stroke="#3E40DB" stroke-width="1" stroke-linecap="round" stroke-linejoin="round" transform="translate(0.5 3.4092)" d="M0 1.4545455C0 0.65122217 0.65122217 0 1.4545455 0L2.909091 0C3.7124143 0 4.3636365 0.65122217 4.3636365 1.4545455L4.3636365 7.2727275C4.3636365 8.0760508 3.7124143 8.727273 2.909091 8.727273L1.4545455 8.727273C0.65122217 8.727273 0 8.0760508 0 7.2727275L0 1.4545455Z" fill-rule="evenodd"/>
	<path fill="#3E40DB" transform="translate(7.77273 3.4092)" d="M0 1.4545455C0 0.65122217 0.65122217 0 1.4545455 0L2.909091 0C3.7124143 0 4.3636365 0.65122217 4.3636365 1.4545455L4.3636365 2.909091C4.3636365 3.7124143 3.7124143 4.3636365 2.909091 4.3636365L1.4545455 4.3636365C0.65122217 4.3636365 0 3.7124143 0 2.909091L0 1.4545455Z" fill-rule="evenodd"/>
	<path fill="none" stroke="#3E40DB" stroke-width="1" stroke-linecap="round" stroke-linejoin="round" transform="translate(7.77273 3.4092)" d="M0 1.4545455C0 0.65122217 0.65122217 0 1.4545455 0L2.909091 0C3.7124143 0 4.3636365 0.65122217 4.3636365 1.4545455L4.3636365 2.909091C4.3636365 3.7124143 3.7124143 4.3636365 2.909091 4.3636365L1.4545455 4.3636365C0.65122217 4.3636365 0 3.7124143 0 2.909091L0 1.4545455Z" fill-rule="evenodd"/>
</svg>
