<?xml version="1.0" encoding="utf-8" ?>
<svg xmlns="http://www.w3.org/2000/svg" xmlns:xlink="http://www.w3.org/1999/xlink" width="16" height="16">
	<path fill="none" stroke="#2F3059" stroke-width="1" stroke-linecap="round" stroke-linejoin="round" transform="translate(6.66667 4.66667)" d="M0 1.3333334C0 2.0697131 0.59695369 2.6666667 1.3333334 2.6666667C2.0697131 2.6666667 2.6666667 2.0697131 2.6666667 1.3333334C2.6666667 0.59695369 2.0697131 0 1.3333334 0C0.59695369 0 0 0.59695369 0 1.3333334" fill-rule="evenodd"/>
	<path fill="none" stroke="#2F3059" stroke-width="1" stroke-linecap="round" stroke-linejoin="round" transform="translate(2.66667 2.66667)" d="M0 2.6666667L0 1.3333334C0 0.59695369 0.59695369 0 1.3333334 0L2.6666667 0" fill-rule="evenodd"/>
	<path fill="none" stroke="#2F3059" stroke-width="1" stroke-linecap="round" stroke-linejoin="round" transform="translate(2.66667 10.6667)" d="M0 0L0 1.3333334C0 2.0697131 0.59695369 2.6666667 1.3333334 2.6666667L2.6666667 2.6666667" fill-rule="evenodd"/>
	<path fill="none" stroke="#2F3059" stroke-width="1" stroke-linecap="round" stroke-linejoin="round" transform="translate(10.6667 2.66667)" d="M0 0L1.3333334 0C2.0697131 0 2.6666667 0.59695369 2.6666667 1.3333334L2.6666667 2.6666667" fill-rule="evenodd"/>
	<path fill="none" stroke="#2F3059" stroke-width="1" stroke-linecap="round" stroke-linejoin="round" transform="translate(10.6667 10.6667)" d="M0 2.6666667L1.3333334 2.6666667C2.0697131 2.6666667 2.6666667 2.0697131 2.6666667 1.3333334L2.6666667 0" fill-rule="evenodd"/>
	<path fill="none" stroke="#2F3059" stroke-width="1" stroke-linecap="round" stroke-linejoin="round" transform="translate(5.33333 9.33333)" d="M0 1.3333334C0 0.59695369 0.59695369 0 1.3333334 0L4 0C4.7363796 0 5.3333335 0.59695369 5.3333335 1.3333334" fill-rule="evenodd"/>
</svg>
