<?xml version="1.0" encoding="utf-8" ?>
<svg xmlns="http://www.w3.org/2000/svg" xmlns:xlink="http://www.w3.org/1999/xlink" width="12" height="12">
	<path fill="#687196" d="M0 0L12 0L12 12L0 12L0 0Z"/>
	<path fill="none" stroke="#687196" stroke-width="1" stroke-linecap="round" stroke-linejoin="round" transform="translate(1.5 1.125)" d="M0 1.0909091C0 0.48841664 0.50367963 0 1.125 0L7.875 0C8.4963207 0 9 0.48841664 9 1.0909091L9 8.727273C9 9.3297653 8.4963207 9.818182 7.875 9.818182L1.125 9.818182C0.50367963 9.818182 0 9.3297653 0 8.727273L0 1.0909091Z" fill-rule="evenodd"/>
	<path fill="none" stroke="#687196" stroke-width="1" stroke-linecap="round" stroke-linejoin="round" transform="translate(3.95455 3.57955)" d="M0 0.54545456C0 0.24420832 0.2289453 0 0.51136363 0L3.5795455 0C3.8619637 0 4.090909 0.24420832 4.090909 0.54545456L4.090909 1.0909091C4.090909 1.3921553 3.8619637 1.6363636 3.5795455 1.6363636L0.51136363 1.6363636C0.2289453 1.6363636 0 1.3921553 0 1.0909091L0 0.54545456Z" fill-rule="evenodd"/>
	<path fill="none" stroke="#687196" stroke-width="1" stroke-linecap="round" stroke-linejoin="round" transform="translate(3.13636 6.85227)" d="M0.40909091 0.405L0.40909091 0.41318181" fill-rule="evenodd"/>
	<path fill="none" stroke="#687196" stroke-width="1" stroke-linecap="round" stroke-linejoin="round" transform="translate(5.59091 6.85227)" d="M0.40909091 0.405L0.40909091 0.41318181" fill-rule="evenodd"/>
	<path fill="none" stroke="#687196" stroke-width="1" stroke-linecap="round" stroke-linejoin="round" transform="translate(8.04545 6.85227)" d="M0.40909091 0.405L0.40909091 0.41318181" fill-rule="evenodd"/>
	<path fill="none" stroke="#687196" stroke-width="1" stroke-linecap="round" stroke-linejoin="round" transform="translate(3.13636 8.48864)" d="M0.40909091 0.405L0.40909091 0.41318181" fill-rule="evenodd"/>
	<path fill="none" stroke="#687196" stroke-width="1" stroke-linecap="round" stroke-linejoin="round" transform="translate(5.59091 8.48864)" d="M0.40909091 0.405L0.40909091 0.41318181" fill-rule="evenodd"/>
	<path fill="none" stroke="#687196" stroke-width="1" stroke-linecap="round" stroke-linejoin="round" transform="translate(8.04545 8.48864)" d="M0.40909091 0.405L0.40909091 0.41318181" fill-rule="evenodd"/>
</svg>
