<?xml version="1.0" encoding="UTF-8"?>
<svg width="24px" height="24px" viewBox="0 0 24 24" version="1.1" xmlns="http://www.w3.org/2000/svg" xmlns:xlink="http://www.w3.org/1999/xlink">
    <title>collapse</title>
    <g id="-------→-Builder-Elements" stroke="none" stroke-width="1" fill="none" fill-rule="evenodd">
        <g id="Kanban---Elements" transform="translate(-344, -275)">
            <g id="collapse" transform="translate(356, 287) rotate(90) translate(-356, -287)translate(344, 275)">
                <rect id="Rectangle" fill="#F1F3F8" x="0" y="0" width="24" height="24" rx="4"></rect>
                <path d="M18,12.2439786 C18,12.7729409 17.5711914,13.2017495 17.0422291,13.2017495 L9.62479746,13.2017495 L9.62479746,13.2017495 L12.0915452,15.920715 C12.4763071,16.3448177 12.5095868,16.981082 12.1711687,17.4430105 C11.9053513,17.8058416 11.3957311,17.8844867 11.0329001,17.6186694 C10.9917245,17.5885033 10.9534761,17.554533 10.9186597,17.5172068 L6.32287197,12.5901253 C6.14176652,12.3959646 6.14400223,12.0941092 6.32796379,11.9026524 L11.0736962,6.96356214 C11.4135477,6.6098639 11.9757808,6.59863889 12.3294791,6.93849038 C12.3564562,6.9644114 12.3817685,6.99201109 12.4052648,7.02112449 C12.7661998,7.46834592 12.7349272,8.11500897 12.3325223,8.52531535 L9.62479746,11.2862077 L9.62479746,11.2862077 L17.0422291,11.2862077 C17.5711914,11.2862077 18,11.7150164 18,12.2439786 Z" id="↳-🎨-Fill" fill="#687196" transform="translate(12, 12.2367) rotate(270) translate(-12, -12.2367)"></path>
            </g>
        </g>
    </g>
</svg>