<?xml version="1.0" encoding="utf-8" ?>
<svg xmlns="http://www.w3.org/2000/svg" xmlns:xlink="http://www.w3.org/1999/xlink" width="16" height="16">
	<path fill="none" stroke="#2F3059" stroke-width="1" stroke-linecap="round" stroke-linejoin="round" transform="translate(9.33333 2)" d="M0 0L0 2.6666667C0 3.0348566 0.29847685 3.3333333 0.66666669 3.3333333L3.3333333 3.3333333" fill-rule="evenodd"/>
	<path fill="none" stroke="#2F3059" stroke-width="1" stroke-linecap="round" stroke-linejoin="round" transform="translate(3.33333 2)" d="M8 12L1.3333334 12C0.59695369 12 0 11.403047 0 10.666667L0 1.3333334C0 0.59695369 0.59695369 0 1.3333334 0L6 0L9.333333 3.3333333L9.333333 10.666667C9.333333 11.403047 8.7363796 12 8 12Z" fill-rule="evenodd"/>
	<path fill="none" stroke="#2F3059" stroke-width="1" stroke-linecap="round" stroke-linejoin="round" transform="translate(6 4.33333)" d="M0 0.33333334L0.66666669 0.33333334" fill-rule="evenodd"/>
	<path fill="none" stroke="#2F3059" stroke-width="1" stroke-linecap="round" stroke-linejoin="round" transform="translate(6 8.33333)" d="M0 0.33333334L4 0.33333334" fill-rule="evenodd"/>
	<path fill="none" stroke="#2F3059" stroke-width="1" stroke-linecap="round" stroke-linejoin="round" transform="translate(8.66667 11)" d="M0 0.33333334L1.3333334 0.33333334" fill-rule="evenodd"/>
</svg>
